<?xml version="1.0" encoding="UTF-8"?>
<svg viewBox="0 0 257 65" xmlns="http://www.w3.org/2000/svg">
	<path d="m29.859 43.602c-1.5625 1.3281-3.3047 2.3515-5.2266 3.0703-1.9219 0.7031-3.9219 1.0547-6 1.0547-1.5937 0-3.1328-0.211-4.6172-0.6328-1.4687-0.4063-2.8437-0.9844-4.125-1.7344-1.2812-0.7656-2.4531-1.6719-3.5156-2.7188-1.0625-1.0625-1.9688-2.2344-2.7188-3.5156-0.75-1.2969-1.3359-2.6875-1.7578-4.1719-0.40625-1.4843-0.60938-3.0234-0.60938-4.6172 0-1.5937 0.20313-3.125 0.60938-4.5937 0.42187-1.4688 1.0078-2.8438 1.7578-4.125 0.75-1.2969 1.6562-2.4688 2.7188-3.5156 1.0625-1.0625 2.2344-1.9688 3.5156-2.7188 1.2813-0.75 2.6563-1.3281 4.125-1.7344 1.4844-0.4218 3.0235-0.6328 4.6172-0.6328 2.0781 0 4.0781 0.3594 6 1.0782 1.9219 0.7031 3.6641 1.7187 5.2266 3.0468l-3.5156 5.8594c-1.0157-1.0312-2.1876-1.8359-3.5157-2.4141-1.3281-0.5937-2.7265-0.8906-4.1953-0.8906-1.4687 0-2.8516 0.2813-4.1484 0.8438-1.2813 0.5625-2.4063 1.3281-3.375 2.2968-0.9688 0.9532-1.7344 2.0782-2.2969 3.375-0.5625 1.2813-0.84375 2.6563-0.84375 4.125 0 1.4844 0.28125 2.875 0.84375 4.1719s1.3281 2.4297 2.2969 3.3984c0.9687 0.9688 2.0937 1.7344 3.375 2.2969 1.2968 0.5625 2.6797 0.8438 4.1484 0.8438 0.8438 0 1.6641-0.1016 2.461-0.3047 0.7968-0.2031 1.5546-0.4844 2.2734-0.8438v-9.5625h6.4922v13.266zm9.5053 3.3984h-6.4453v-35.086h6.4453v35.086zm54.94-12.773c0 1.9687-0.3359 3.7656-1.0078 5.3906s-1.5859 3.0234-2.7422 4.1953c-1.1562 1.1563-2.5156 2.0547-4.0781 2.6953-1.5469 0.6406-3.211 0.961-4.9922 0.961-1.7656 0-3.4297-0.3282-4.9922-0.9844-1.5469-0.6563-2.9062-1.5703-4.0781-2.7422-1.1563-1.1719-2.0703-2.5625-2.7422-4.1719-0.6719-1.625-1.0078-3.4062-1.0078-5.3437v-22.312h6.4219v11.719c0.3437-0.4375 0.7578-0.8281 1.2421-1.1719 0.5-0.3437 1.0313-0.625 1.5938-0.8437 0.5781-0.2188 1.1719-0.3828 1.7812-0.4922 0.6094-0.125 1.2032-0.1875 1.7813-0.1875 1.7812 0 3.4453 0.3359 4.9922 1.0078 1.5625 0.6563 2.9219 1.5781 4.0781 2.7656 1.1563 1.1875 2.0703 2.5938 2.7422 4.2188 0.6719 1.6094 1.0078 3.375 1.0078 5.2969zm-6.4453 0c0-0.9688-0.1719-1.8672-0.5156-2.6954-0.3282-0.8437-0.7813-1.5703-1.3594-2.1796-0.5781-0.6094-1.2578-1.086-2.0391-1.4297-0.7656-0.3438-1.5859-0.5157-2.4609-0.5157s-1.7031 0.1954-2.4844 0.586c-0.7656 0.375-1.4375 0.8828-2.0156 1.5234-0.5781 0.625-1.0313 1.3516-1.3594 2.1797-0.3281 0.8125-0.4922 1.6563-0.4922 2.5313 0 0.9687 0.1641 1.8672 0.4922 2.6953s0.7813 1.5469 1.3594 2.1562c0.5781 0.6094 1.25 1.0938 2.0156 1.4531 0.7813 0.3438 1.6094 0.5157 2.4844 0.5157s1.6953-0.1719 2.4609-0.5157c0.7813-0.3593 1.461-0.8437 2.0391-1.4531 0.5781-0.6093 1.0312-1.3281 1.3594-2.1562 0.3437-0.8281 0.5156-1.7266 0.5156-2.6953zm18.552 6.6328c0.25 0.0781 0.5 0.1328 0.75 0.164 0.25 0.0157 0.5 0.0235 0.75 0.0235 0.625 0 1.226-0.086 1.805-0.2578 0.578-0.1719 1.117-0.4141 1.617-0.7266 0.515-0.3281 0.968-0.7187 1.359-1.1719 0.406-0.4687 0.734-0.9844 0.984-1.5468l4.688 4.7109c-0.594 0.8437-1.281 1.6015-2.063 2.2734-0.765 0.6719-1.601 1.2422-2.507 1.711-0.891 0.4687-1.836 0.8203-2.836 1.0547-0.985 0.25-2 0.375-3.047 0.375-1.766 0-3.43-0.3282-4.992-0.9844-1.547-0.6563-2.907-1.5703-4.0784-2.7422-1.1563-1.1719-2.0704-2.5625-2.7422-4.1719-0.6719-1.625-1.0078-3.4062-1.0078-5.3437 0-1.9844 0.3359-3.7969 1.0078-5.4375 0.6718-1.6407 1.5859-3.0391 2.7422-4.1953 1.1714-1.1563 2.5314-2.0547 4.0784-2.6954 1.562-0.6406 3.226-0.9609 4.992-0.9609 1.047 0 2.07 0.125 3.07 0.375s1.945 0.6094 2.836 1.0781c0.906 0.4688 1.75 1.0469 2.531 1.7344 0.782 0.6719 1.469 1.4297 2.063 2.2734l-12 14.461zm3.281-13.195c-0.297-0.1094-0.594-0.1797-0.891-0.211-0.281-0.0312-0.578-0.0469-0.89-0.0469-0.875 0-1.703 0.1641-2.485 0.4922-0.765 0.3125-1.437 0.7657-2.015 1.3594-0.563 0.5938-1.008 1.3125-1.336 2.1563-0.328 0.8281-0.492 1.7656-0.492 2.8125 0 0.2343 8e-3 0.5 0.023 0.7968 0.031 0.2969 0.07 0.6016 0.117 0.9141 0.063 0.2969 0.133 0.5859 0.211 0.8672 0.078 0.2812 0.18 0.5312 0.305 0.75l7.453-9.8906zm33.388 19.336h-7.828l-4.992-7.6875-5.039 7.6875h-7.828l9.164-12.867-9.164-12.375h7.828l5.039 7.1953 4.992-7.1953h7.828l-9.187 12.375 9.187 12.867z" fill="#333" />
	<path d="m67.081 34.227c0 1.875-0.3359 3.625-1.0078 5.25-0.6719 1.6093-1.5859 3.0078-2.7422 4.1953-1.1562 1.1719-2.5156 2.1015-4.0781 2.789-1.5469 0.6719-3.2109 1.0079-4.9922 1.0079-1.7656 0-3.4297-0.336-4.9922-1.0079-1.5468-0.6875-2.9062-1.6171-4.0781-2.789-1.1562-1.1875-2.0703-2.586-2.7422-4.1953-0.6719-1.625-1.0078-3.375-1.0078-5.25 0-1.9063 0.3359-3.6719 1.0078-5.2969s1.586-3.0235 2.7422-4.1953c1.1719-1.1875 2.5313-2.1172 4.0781-2.7891 1.5625-0.6719 3.2266-1.0078 4.9922-1.0078 1.7813 0 3.4453 0.3203 4.9922 0.9609 1.5625 0.625 2.9219 1.5235 4.0781 2.6954 1.1563 1.1562 2.0703 2.5546 2.7422 4.1953 0.6719 1.625 1.0078 3.4375 1.0078 5.4375zm-6.4453 0c0-1.0313-0.1719-1.961-0.5156-2.7891-0.3281-0.8437-0.7813-1.5625-1.3594-2.1563-0.5781-0.6093-1.2578-1.0703-2.039-1.3828-0.7657-0.3281-1.586-0.4922-2.461-0.4922s-1.7031 0.1641-2.4844 0.4922c-0.7656 0.3125-1.4375 0.7735-2.0156 1.3828-0.5625 0.5938-1.0078 1.3126-1.3359 2.1563-0.3281 0.8281-0.4922 1.7578-0.4922 2.7891 0 0.9687 0.1641 1.8672 0.4922 2.6953s0.7734 1.5469 1.3359 2.1562c0.5781 0.6094 1.25 1.0938 2.0156 1.4531 0.7813 0.3438 1.6094 0.5157 2.4844 0.5157s1.6953-0.1641 2.461-0.4922c0.7812-0.3281 1.4609-0.7891 2.039-1.3828 0.5781-0.5938 1.0313-1.3125 1.3594-2.1563 0.3437-0.8437 0.5156-1.7734 0.5156-2.789z" fill="#0D8BFC" />
	<path d="m145.91 22.441c0-0.3007 0.103-0.5537 0.308-0.759s0.462-0.308 0.77-0.308c0.315 0 0.568 0.1027 0.759 0.308 0.198 0.2053 0.297 0.4583 0.297 0.759s-0.099 0.5537-0.297 0.759c-0.191 0.2053-0.444 0.308-0.759 0.308-0.308 0-0.565-0.1027-0.77-0.308s-0.308-0.4583-0.308-0.759zm0 4.6847c0-0.6307 0.128-1.199 0.385-1.705 0.264-0.4987 0.627-0.891 1.089-1.177 0.462-0.2787 0.986-0.418 1.573-0.418s1.111 0.1393 1.573 0.418c0.462 0.286 0.821 0.6783 1.078 1.177 0.264 0.506 0.396 1.0743 0.396 1.705 0 0.6233-0.132 1.166-0.396 1.628-0.257 0.4693-0.627 0.8103-1.111 1.023l-0.715-1.331c0.543-0.308 0.814-0.7517 0.814-1.331 0-0.4473-0.147-0.8177-0.44-1.111s-0.693-0.44-1.199-0.44-0.906 0.1467-1.199 0.44-0.44 0.6637-0.44 1.111c0 0.5867 0.271 1.0303 0.814 1.331l-0.726 1.331c-0.469-0.2127-0.836-0.5537-1.1-1.023-0.264-0.462-0.396-1.0047-0.396-1.628zm0 6.0498c0-0.6233 0.128-1.1843 0.385-1.683 0.264-0.4913 0.627-0.8763 1.089-1.155 0.462-0.2786 0.986-0.418 1.573-0.418s1.111 0.1394 1.573 0.418c0.462 0.2787 0.821 0.6637 1.078 1.155 0.264 0.4987 0.396 1.0597 0.396 1.683 0 0.6234-0.132 1.1807-0.396 1.672-0.257 0.4914-0.616 0.8764-1.078 1.155-0.462 0.2787-0.986 0.418-1.573 0.418s-1.111-0.1393-1.573-0.418c-0.462-0.2786-0.825-0.6636-1.089-1.155-0.257-0.4913-0.385-1.0486-0.385-1.672zm1.408 0c0 0.44 0.147 0.7994 0.44 1.078 0.301 0.286 0.7 0.429 1.199 0.429s0.895-0.143 1.188-0.429c0.301-0.2786 0.451-0.638 0.451-1.078s-0.15-0.803-0.451-1.089c-0.293-0.286-0.689-0.429-1.188-0.429s-0.898 0.143-1.199 0.429c-0.293 0.286-0.44 0.649-0.44 1.089zm4.686 11.641c0 0.7407-0.22 1.3274-0.66 1.76-0.433 0.44-1.085 0.66-1.958 0.66h-3.388v-1.716h3.124c0.469 0 0.818-0.099 1.045-0.297 0.235-0.1906 0.352-0.4656 0.352-0.825 0-0.4033-0.132-0.7223-0.396-0.957-0.257-0.2346-0.642-0.352-1.155-0.352h-2.97v-1.716h3.124c0.931 0 1.397-0.374 1.397-1.122 0-0.396-0.132-0.7113-0.396-0.946-0.257-0.2346-0.642-0.352-1.155-0.352h-2.97v-1.716h5.918v1.639h-0.682c0.249 0.22 0.44 0.4877 0.572 0.803 0.132 0.3227 0.198 0.6747 0.198 1.056 0 0.418-0.084 0.7957-0.253 1.133-0.161 0.3374-0.4 0.6087-0.715 0.814 0.308 0.242 0.546 0.5464 0.715 0.913 0.169 0.374 0.253 0.781 0.253 1.221z" fill="#0D8BFC" />
</svg>
