<?xml version="1.0" encoding="UTF-8"?>
<svg fill="none" viewBox="0 0 590 590" xmlns="http://www.w3.org/2000/svg">
	<path d="m590 451.23h-590v0.295h590v-0.295z" fill="#EBEBEB" />
	<path d="m372.49 459.27h-30.043v0.295h30.043v-0.295z" fill="#EBEBEB" />
	<path d="m537.42 465.65h-71.189v0.295h71.189v-0.295z" fill="#EBEBEB" />
	<path d="m336.05 459.41h-73.549v0.295h73.549v-0.295z" fill="#EBEBEB" />
	<path d="m214.81 468.24h-15.387v0.295h15.387v-0.295z" fill="#EBEBEB" />
	<path d="m299.83 468.24h-70.068v0.295h70.068v-0.295z" fill="#EBEBEB" />
	<path d="m107.27 463.26h-45.371v0.295h45.371v-0.295z" fill="#EBEBEB" />
	<path d="m279.66 398.6h-227.85c-1.7849-3e-3 -3.4957-0.714-4.7567-1.978-1.261-1.263-1.9693-2.975-1.9693-4.76v-320.29c0.0155-1.7747 0.7307-3.4716 1.99-4.7221 1.2594-1.2505 2.9612-1.9537 4.736-1.9567h227.85c1.787 0 3.501 0.7099 4.764 1.9735 1.264 1.2635 1.974 2.9773 1.974 4.7643v320.23c0 1.787-0.71 3.501-1.974 4.764-1.263 1.264-2.977 1.974-4.764 1.974zm-227.85-333.47c-1.7067 0.0031-3.3424 0.6833-4.5481 1.8912s-1.8829 2.8449-1.8829 4.5516v320.29c0 1.707 0.6772 3.344 1.8829 4.552s2.8414 1.888 4.5481 1.891h227.85c1.708-3e-3 3.345-0.683 4.552-1.891 1.208-1.207 1.888-2.844 1.891-4.552v-320.29c-3e-3 -1.7078-0.683-3.3447-1.891-4.5523-1.207-1.2076-2.844-1.8874-4.552-1.8905h-227.85z" fill="#EBEBEB" />
	<path d="m534.91 398.6h-227.86c-1.786-3e-3 -3.498-0.714-4.761-1.977s-1.974-2.975-1.977-4.761v-320.29c0.019-1.7758 0.736-3.4726 1.998-4.7228 1.261-1.2502 2.964-1.953 4.74-1.956h227.86c1.772 0.0061 3.471 0.7107 4.728 1.9608 1.257 1.2502 1.97 2.9454 1.986 4.718v320.29c0 1.783-0.707 3.493-1.965 4.756-1.259 1.263-2.966 1.976-4.749 1.982zm-227.86-333.47c-1.708 0.0031-3.345 0.6829-4.553 1.8905-1.207 1.2076-1.887 2.8445-1.89 4.5523v320.29c3e-3 1.708 0.683 3.345 1.89 4.552 1.208 1.208 2.845 1.888 4.553 1.891h227.86c1.708-3e-3 3.345-0.683 4.552-1.891 1.208-1.207 1.887-2.844 1.891-4.552v-320.29c-4e-3 -1.7078-0.683-3.3447-1.891-4.5523-1.207-1.2076-2.844-1.8874-4.552-1.8905h-227.86z" fill="#EBEBEB" />
	<path d="m142.33 302.75s-0.52 15.34-20.792 15.34-20.792-15.34-20.792-15.34h41.584z" fill="#F0F0F0" />
	<path d="m191.48 302.75s-0.531 15.34-20.792 15.34-20.792-15.34-20.792-15.34h41.584z" fill="#F0F0F0" />
	<path d="m130.71 328.22h-46.528v112.56h46.528v-112.56z" fill="#F0F0F0" />
	<path d="m243.58 440.78h-150.46v10.455h150.46v-10.455z" fill="#F0F0F0" />
	<path d="m130.71 440.79h121.8v-112.56h-121.8v112.56z" fill="#F5F5F5" />
	<path d="m149.01 376.55h85.208v-34.633h-85.208v34.633z" fill="#F0F0F0" />
	<path d="m149.01 421.05h85.208v-34.633h-85.208v34.633z" fill="#F0F0F0" />
	<path d="m258.7 318.13h-127.99v10.089h127.99v-10.089z" fill="#F0F0F0" />
	<path d="m77.679 328.23h53.03v-10.089h-53.03v10.089z" fill="#E6E6E6" />
	<path d="m462.68 89.633h-237.12v170.23h237.12v-170.23z" fill="#FAFAFA" />
	<path d="m239.04 259.86 60.322-170.23h45.265l-60.322 170.23h-45.265z" fill="#fff" />
	<path d="m360.76 259.86 60.31-170.23h16.508l-60.309 170.23h-16.509z" fill="#fff" />
	<path d="m473.98 83.78h-259.73c-0.28 0-0.548 0.1102-0.747 0.3069-0.199 0.1966-0.312 0.4637-0.315 0.7433 0 0.1394 0.027 0.2775 0.08 0.4064 0.054 0.1288 0.132 0.2459 0.231 0.3445 0.098 0.0986 0.215 0.1769 0.344 0.2302 0.129 0.0534 0.267 0.0809 0.407 0.0809h259.73c0.14 0 0.278-0.0275 0.407-0.0809 0.129-0.0533 0.246-0.1316 0.344-0.2302 0.099-0.0986 0.177-0.2157 0.231-0.3445 0.053-0.1289 0.08-0.267 0.08-0.4064-3e-3 -0.2796-0.116-0.5467-0.315-0.7433-0.199-0.1967-0.467-0.3069-0.747-0.3069z" fill="#E0E0E0" />
	<path d="m342.72 260.22h2.809v-170.96h-2.809v170.96z" fill="#F0F0F0" />
	<path d="m345.52 260.22h1.404v-170.96h-1.404v170.96z" fill="#E0E0E0" />
	<path d="m223.92 173.35v2.808h240.4v-2.808h-240.4z" fill="#F0F0F0" />
	<path d="m464.32 258.69v-170.7h-240.4v173.51h240.4v-2.809zm-237.59 0v-167.83h234.82v167.83h-234.82z" fill="#F0F0F0" />
	<path d="m464.32 261.5h1.404v-173.51h-1.404v173.51z" fill="#E0E0E0" />
	<path d="m429.46 81.208v199.9h50.752l-9.31-199.9h-41.442z" fill="#EBEBEB" opacity=".5" />
	<path d="m260.18 81.208v199.9h-50.752l9.311-199.9h41.441z" fill="#EBEBEB" opacity=".5" />
	<path d="m541.68 307.59h-249.17v41.075h249.17v-41.075z" fill="#EBEBEB" />
	<path d="m538.67 310.03h-91.662v36.191h91.662v-36.191z" fill="#F5F5F5" />
	<path d="m443.75 310.03h-91.663v36.191h91.663v-36.191z" fill="#F5F5F5" />
	<path d="m343.07 451.23h-5.499l11.765-102.57h5.499l-11.765 102.57z" fill="#F5F5F5" />
	<path d="m294.61 451.23h-5.511l11.765-102.57h5.51l-11.764 102.57z" fill="#F5F5F5" />
	<path d="m491.1 451.23h5.511l-11.765-102.57h-5.51l11.764 102.57z" fill="#F5F5F5" />
	<path d="m539.57 451.23h5.51l-11.764-102.57h-5.511l11.765 102.57z" fill="#F5F5F5" />
	<path d="m412.73 262.35h-19.27l-8.024 45.242h19.27l8.024-45.242z" fill="#E0E0E0" />
	<path d="m455.59 223.02h-107.77l3.28 65.561h107.77l-3.281-65.561z" fill="#E6E6E6" />
	<path d="m453.11 224.58h-102.66l3.127 62.445h102.66l-3.127-62.445z" fill="#FAFAFA" />
	<path d="m482.78 302.12h2.089c0.469 0 0.849-0.38 0.849-0.849v-0.048c0-0.469-0.38-0.849-0.849-0.849h-2.089c-0.469 0-0.849 0.38-0.849 0.849v0.048c0 0.469 0.38 0.849 0.849 0.849z" fill="#E0E0E0" />
	<path d="m523.79 226.25-23.364 23.364c-3.098-3.098-4.839-7.3-4.839-11.682 0-4.381 1.741-8.584 4.839-11.682s7.301-4.839 11.682-4.839c4.382 0 8.584 1.741 11.682 4.839z" fill="#E6E6E6" />
	<path d="m491.34 228.92 9.11 9.109 11.8-11.8-9.11-9.097c-0.774-0.777-1.693-1.393-2.706-1.813-1.012-0.42-2.098-0.637-3.194-0.637s-2.181 0.217-3.194 0.637c-1.012 0.42-1.932 1.036-2.706 1.813-0.774 0.773-1.389 1.692-1.808 2.704-0.419 1.011-0.635 2.095-0.635 3.19s0.216 2.179 0.635 3.19 1.034 1.93 1.808 2.704z" fill="#E6E6E6" />
	<path d="m451.07 254.47 1.393 1.393 38.883-38.882-1.394-1.394-38.882 38.883z" fill="#E6E6E6" />
	<path d="m478.8 303.16 1.695-1.005-28.049-47.296-1.695 1.005 28.049 47.296z" fill="#E6E6E6" />
	<path d="m491.34 220.58c1.877 0 3.399-1.521 3.399-3.398s-1.522-3.398-3.399-3.398-3.398 1.521-3.398 3.398 1.521 3.398 3.398 3.398z" fill="#E6E6E6" />
	<path d="m451.73 257.38c1.199 0 2.171-0.972 2.171-2.171s-0.972-2.171-2.171-2.171c-1.2 0-2.172 0.972-2.172 2.171s0.972 2.171 2.172 2.171z" fill="#E6E6E6" />
	<path d="m471.12 301.23h16.013l1.262 6.36h-18.526l1.251-6.36z" fill="#E6E6E6" />
	<path d="m295 504.52c126.36 0 228.79-5.981 228.79-13.358s-102.43-13.357-228.79-13.357-228.79 5.98-228.79 13.357 102.43 13.358 228.79 13.358z" fill="#F5F5F5" />
	<path d="m405.11 297.11h-281.49c-3.778-0.029-7.397-1.519-10.099-4.16-2.702-2.64-4.276-6.224-4.392-10l-3.693-159.44c-0.047-1.845 0.276-3.68 0.95-5.398s1.685-3.283 2.975-4.603c1.289-1.32 2.83-2.368 4.531-3.083 1.701-0.714 3.528-1.08 5.374-1.076h281.49c3.777 0.028 7.397 1.519 10.098 4.159 2.702 2.641 4.276 6.225 4.392 10.001l3.658 159.44c0.047 1.842-0.275 3.674-0.946 5.39-0.672 1.715-1.681 3.278-2.966 4.598-1.286 1.32-2.822 2.368-4.519 3.085-1.698 0.717-3.521 1.086-5.363 1.087z" fill="#407BFF" />
	<path d="m405.11 297.7h-281.49c-3.928-0.029-7.691-1.579-10.499-4.326-2.808-2.746-4.442-6.474-4.558-10.4l-3.717-159.45c-0.051-1.923 0.285-3.837 0.988-5.629 0.702-1.791 1.757-3.423 3.102-4.799 1.344-1.377 2.951-2.47 4.725-3.214 1.775-0.744 3.68-1.125 5.605-1.119h281.49c3.933 0.022 7.704 1.572 10.518 4.321 2.813 2.75 4.449 6.485 4.562 10.417l3.693 159.44c0.051 1.924-0.285 3.838-0.987 5.629-0.703 1.792-1.758 3.424-3.102 4.8-1.345 1.377-2.952 2.469-4.726 3.214-1.774 0.744-3.68 1.125-5.604 1.119zm-285.84-187.76c-1.768-6e-3 -3.518 0.344-5.147 1.027-1.63 0.684-3.106 1.687-4.341 2.952-1.234 1.264-2.203 2.763-2.847 4.409-0.645 1.645-0.952 3.403-0.905 5.17l3.717 159.44c0.104 3.625 1.612 7.067 4.205 9.601s6.07 3.961 9.695 3.981h281.47c1.765 4e-3 3.514-0.346 5.142-1.03 1.628-0.683 3.103-1.686 4.337-2.948 1.234-1.263 2.203-2.76 2.849-4.404 0.646-1.643 0.956-3.399 0.911-5.164l-3.693-159.45c-0.104-3.624-1.612-7.066-4.205-9.6s-6.07-3.962-9.695-3.981h-281.49z" fill="#407BFF" />
	<path d="m407.47 297.11h-281.49c-3.778-0.029-7.397-1.519-10.099-4.16-2.702-2.64-4.276-6.224-4.392-10l-3.693-159.44c-0.047-1.845 0.276-3.68 0.95-5.398s1.685-3.283 2.975-4.603c1.289-1.32 2.83-2.368 4.531-3.083 1.701-0.714 3.528-1.08 5.374-1.076h281.49c3.777 0.028 7.397 1.519 10.098 4.159 2.702 2.641 4.276 6.225 4.392 10.001l3.658 159.44c0.047 1.842-0.275 3.674-0.946 5.39-0.672 1.715-1.681 3.278-2.966 4.598-1.286 1.32-2.822 2.368-4.519 3.085-1.698 0.717-3.521 1.086-5.363 1.087z" fill="#F5F5F5" />
	<path d="m407.47 297.7h-281.49c-3.928-0.029-7.691-1.579-10.499-4.326-2.808-2.746-4.442-6.474-4.558-10.4l-3.717-159.45c-0.051-1.923 0.285-3.837 0.988-5.629 0.702-1.791 1.757-3.423 3.102-4.799 1.344-1.377 2.951-2.47 4.725-3.214 1.775-0.744 3.68-1.125 5.605-1.119h281.49c3.933 0.022 7.704 1.572 10.518 4.321 2.813 2.75 4.449 6.485 4.562 10.417l3.693 159.44c0.051 1.924-0.285 3.838-0.987 5.629-0.703 1.792-1.758 3.424-3.102 4.8-1.345 1.377-2.952 2.469-4.726 3.214-1.774 0.744-3.68 1.125-5.604 1.119zm-285.84-187.76c-1.768-6e-3 -3.518 0.344-5.148 1.027-1.629 0.684-3.105 1.687-4.34 2.952-1.234 1.264-2.203 2.763-2.847 4.409-0.645 1.645-0.952 3.403-0.905 5.17l3.717 159.44c0.104 3.625 1.612 7.067 4.205 9.601s6.07 3.961 9.695 3.981h281.47c1.765 4e-3 3.514-0.346 5.142-1.03 1.628-0.683 3.103-1.686 4.337-2.948 1.234-1.263 2.203-2.76 2.849-4.404 0.646-1.643 0.956-3.399 0.911-5.164l-3.693-159.45c-0.104-3.624-1.612-7.066-4.205-9.6s-6.07-3.962-9.695-3.981h-281.49z" fill="#407BFF" />
	<path d="m163.11 153.97-19.033-17.7c9.003-9.723 25.004-9.723 35.4 0 3.324 3.088 5.836 6.946 7.316 11.234l-23.683 6.466z" fill="#E0E0E0" />
	<path d="m159.15 154.36-24.78 2.183c-0.592-3.589-0.383-7.264 0.613-10.762 0.986-3.407 2.751-6.538 5.157-9.145l19.01 17.724z" fill="#407BFF" opacity=".2" />
	<path d="m163.11 155.76-13.735 14.844c-1.851-1.726-3.41-3.743-4.614-5.97-1.182-2.209-1.98-4.604-2.36-7.08l20.709-1.794z" fill="#fff" />
	<path d="m164.44 157.78 23.73-6.49c1.475 4.086 1.816 8.495 0.985 12.759s-2.803 8.222-5.705 11.454c-9.004 9.724-25.005 9.724-35.4 0l16.39-17.723z" fill="#407BFF" opacity=".6" />
	<path d="m228.31 153.97-19.033-17.7c9.003-9.723 25.004-9.723 35.4 0 3.327 3.087 5.843 6.945 7.328 11.234l-23.695 6.466z" fill="#407BFF" opacity=".2" />
	<path d="m224.33 154.36-24.78 2.183c-0.594-3.589-0.381-7.266 0.625-10.762 0.977-3.409 2.739-6.541 5.145-9.145l19.01 17.724z" fill="#E0E0E0" />
	<path d="m228.31 155.76-13.747 14.844c-1.851-1.726-3.41-3.743-4.613-5.97-1.183-2.209-1.981-4.604-2.36-7.08l20.72-1.794z" fill="#407BFF" opacity=".6" />
	<path d="m229.63 157.78 23.73-6.49c1.48 4.085 1.822 8.495 0.991 12.76-0.832 4.264-2.805 8.223-5.711 11.453-9.004 9.724-25.004 9.724-35.4 0l16.39-17.723z" fill="#fff" />
	<g fill="#407BFF" opacity=".3">
		<path d="m126.18 274.2h-0.059c-0.154-0.021-0.295-0.1-0.393-0.22-0.099-0.121-0.148-0.274-0.138-0.429 1.346-13.901 9.96-27.223 23.046-35.625 11.34-7.28 25.747-10.962 41.76-10.62 4.106 0.083 8.26 0.425 12.307 0.767 6.141 0.65 12.32 0.863 18.491 0.638 6.903-0.413 19.576-2.526 26.845-12.084 2.447-3.539 4.43-7.378 5.9-11.422 1.959-4.72 3.977-9.688 7.599-13.487 4.815-5.063 12.213-7.942 22.007-8.567 5.053-0.231 10.115-0.184 15.163 0.141 4.354 0.201 8.862 0.413 13.287 0.236 7.812-0.306 18.609-2.183 25.653-9.44 3.233-3.304 5.475-7.528 7.647-11.611 1.18-2.124 2.301-4.33 3.61-6.407 4.483-7.067 10.708-12.862 18.078-16.827 0.067-0.037 0.141-0.061 0.218-0.069 0.076-8e-3 0.153-1e-3 0.227 0.021 0.073 0.022 0.142 0.059 0.201 0.107 0.06 0.049 0.109 0.109 0.145 0.177 0.072 0.138 0.088 0.299 0.044 0.449s-0.145 0.276-0.28 0.353c-7.225 3.89-13.322 9.581-17.7 16.52-1.287 2.042-2.455 4.225-3.54 6.337-2.207 4.154-4.484 8.449-7.847 11.883-5.794 5.9-14.939 9.31-26.456 9.758-4.46 0.177-8.992 0-13.369-0.236-5.009-0.319-10.032-0.366-15.045-0.141-9.44 0.601-16.627 3.363-21.24 8.26-3.47 3.634-5.44 8.46-7.364 13.121-1.497 4.142-3.524 8.072-6.029 11.694-7.564 9.924-20.615 12.119-27.73 12.543-6.223 0.229-12.453 0.012-18.644-0.649-4.012-0.33-8.166-0.672-12.237-0.755-15.729-0.33-29.96 3.292-41.099 10.443-12.78 8.26-21.24 21.24-22.503 34.751-0.044 0.112-0.12 0.209-0.219 0.278-0.098 0.07-0.215 0.108-0.336 0.112z" opacity=".3" />
		<path d="m369.45 145.07h-0.106c-0.15-0.041-0.277-0.14-0.354-0.275-0.078-0.135-0.099-0.295-0.059-0.445l1.286-5.015c0.144-0.571 0.329-1.131 0.555-1.675 0.011-0.02 0.017-0.042 0.017-0.065s-6e-3 -0.045-0.017-0.065c-3.729 0.097-7.44 0.555-11.08 1.369-0.076 0.017-0.154 0.019-0.23 6e-3 -0.076-0.014-0.148-0.042-0.213-0.084s-0.121-0.096-0.164-0.16c-0.044-0.063-0.074-0.135-0.09-0.211-0.017-0.075-0.019-0.153-6e-3 -0.229 0.014-0.076 0.042-0.148 0.084-0.213s0.096-0.121 0.16-0.165c0.063-0.043 0.135-0.074 0.211-0.089 3.684-0.826 7.437-1.308 11.21-1.44 0.211-5e-3 0.421 0.041 0.611 0.136 0.189 0.094 0.352 0.234 0.474 0.407 0.127 0.182 0.206 0.394 0.228 0.615 0.023 0.221-0.011 0.444-0.098 0.648-0.199 0.492-0.364 0.996-0.495 1.51l-1.298 5.015c-0.036 0.134-0.119 0.251-0.234 0.329s-0.254 0.112-0.392 0.096z" opacity=".3" />
	</g>
	<path d="m418.24 132.03s-16.52-7.245-21.37 13.181c-3.929 16.449-12.189 22.609-12.189 22.609s29.205 11.28 45.489-1.947l-11.93-33.843z" fill="#263238" />
	<path d="m399.04 200.8c-0.602 1.628-1.18 3.02-1.818 4.484-0.637 1.463-1.298 2.867-1.97 4.283-1.357 2.832-2.891 5.57-4.449 8.26-3.158 5.492-6.82 10.679-10.938 15.493l-0.791 0.897c-0.283 0.319-0.425 0.519-1.015 1.121-1.096 1.103-2.451 1.915-3.941 2.36-1.362 0.383-2.792 0.464-4.189 0.236-1.114-0.175-2.2-0.493-3.233-0.944-1.681-0.752-3.266-1.703-4.72-2.832-1.326-1.019-2.594-2.11-3.8-3.268-4.468-4.455-8.404-9.413-11.729-14.774l4.189-3.162c3.991 4.235 8.282 8.179 12.838 11.8 1.962 1.602 4.159 2.892 6.514 3.823 0.944 0.318 1.593 0.177 1.428 0.13-0.165-0.048-0.154 0-0.118 0 0.035 0 0.259-0.343 0.448-0.602l0.649-0.85c3.451-4.616 6.567-9.475 9.322-14.537 1.393-2.549 2.691-5.157 3.953-7.777 0.626-1.309 1.239-2.619 1.829-3.941 0.59-1.321 1.18-2.702 1.652-3.894l9.889 3.694z" fill="#FFC3BD" />
	<path d="m395.68 186.6c-4.414-0.165-12.178 15.883-12.178 15.883l11.481 13.912s13.382-16.791 11.553-22.219c-1.959-5.652-4.437-7.352-10.856-7.576z" fill="#263238" />
	<path d="m394.95 190.48-5.971 18.703 5.381 6.501 0.59-25.204z" fill="#000" opacity=".2" />
	<path d="m349.69 218.04-12.213-3.092 8.26-6.525s6.136 2.584 6.525 6.879l-2.572 2.738z" fill="#FFC3BD" />
	<path d="m331.76 209.71 6.337-4.72 7.599 3.434-8.272 6.525-5.664-5.239z" fill="#FFC3BD" />
	<path d="m426.84 474.63h-10.36l0.507-24.002h10.361l-0.508 24.002z" fill="#FFC3BD" />
	<path d="m415.48 473.43h11.682c0.2-2e-3 0.394 0.068 0.546 0.199 0.152 0.13 0.251 0.311 0.28 0.509l1.322 9.216c0.025 0.233 0 0.468-0.072 0.691-0.073 0.223-0.191 0.428-0.348 0.601-0.157 0.174-0.349 0.313-0.564 0.407-0.214 0.095-0.446 0.143-0.68 0.141-4.059-0.07-6.018-0.306-11.139-0.306-3.151 0-12.19 0.33-16.52 0.33-4.331 0-4.579-4.307-2.773-4.72 8.118-1.746 13.853-4.154 16.59-6.455 0.474-0.387 1.064-0.603 1.676-0.613z" fill="#263238" />
	<g opacity=".2">
		<path d="m416.99 450.63-0.259 12.379h10.36l0.272-12.379h-10.373z" fill="#000" opacity=".2" />
	</g>
	<path d="m391.51 191.74c-0.224 6.561 0.909 21.866 7.8 57.49l42.079-1.251c-1.18-17.098-1.546-27.659 5.593-63.047-5.927-1.04-11.921-1.651-17.936-1.829-6.378-0.264-12.766-0.071-19.116 0.578-4.862 0.59-10.113 1.593-13.558 2.36-1.329 0.274-2.528 0.983-3.409 2.015-0.88 1.033-1.392 2.329-1.453 3.684z" fill="#263238" />
	<path d="m426.51 161.66c-1.027 6.183-1.888 17.488 2.537 21.453-3.326 5.236-8.562 8.97-14.597 10.407-9.699-4.92-4.519-9.841-4.519-9.841 6.809-1.841 6.478-6.927 5.145-11.67l11.434-10.349z" fill="#FFC3BD" />
	<path d="m414.45 193.52 1.251-2.454 6.738 1.522-7.989 0.932z" fill="#E0E0E0" />
	<path d="m415.7 191.07c2.171-0.991 12.178-7.505 12.567-9.546 0.791 0.861 5.027 1.121 5.027 1.121s-2.537 11.646-7.446 20.166c-3.351-7.599-6.537-9.381-10.148-11.741z" fill="#fff" />
	<path d="m414.45 193.52-0.566-2.454-4.13 0.295 4.696 2.159z" fill="#E0E0E0" />
	<path d="m413.88 191.07c-3.339-2.219-2.525-6.856-2.195-8.886-0.79 0.85-5.027 1.109-5.027 1.109s-5.994 10.998-1.073 19.518c2.324-6.113 4.684-9.381 8.295-11.741z" fill="#fff" />
	<path d="m421.85 165.87-6.761 6.136c0.323 1.103 0.551 2.232 0.684 3.375 2.608-0.461 6.124-3.446 6.313-6.195 0.123-1.111 0.043-2.234-0.236-3.316z" fill="#000" opacity=".2" />
	<path d="m429.87 147.5c-0.13 10.29 0 14.644-4.885 20.155-7.411 8.26-20.06 5.9-22.963-4.225-2.643-9.098-1.994-24.39 7.847-28.969 2.165-1.019 4.554-1.467 6.941-1.302 2.387 0.164 4.692 0.937 6.696 2.243 2.004 1.307 3.641 3.104 4.755 5.222 1.114 2.117 1.668 4.484 1.609 6.876z" fill="#FFC3BD" />
	<path d="m429.04 152.44-12.921-0.637c-0.039-1e-3 -0.077-0.011-0.112-0.027s-0.067-0.039-0.093-0.068c-0.026-0.028-0.047-0.062-0.06-0.098-0.014-0.036-0.02-0.075-0.018-0.114 1e-3 -0.04 0.011-0.079 0.028-0.115s0.041-0.068 0.071-0.094c0.03-0.027 0.064-0.047 0.102-0.06 0.038-0.012 0.078-0.017 0.118-0.014l12.921 0.637c0.038 3e-3 0.076 0.014 0.111 0.031 0.035 0.018 0.065 0.042 0.091 0.072 0.025 0.03 0.044 0.064 0.056 0.101s0.016 0.076 0.013 0.115c-1e-3 0.038-0.011 0.076-0.027 0.11-0.016 0.035-0.04 0.066-0.068 0.091-0.029 0.026-0.063 0.045-0.099 0.057s-0.075 0.016-0.113 0.013z" fill="#fff" />
	<path d="m399.31 249.23s5.322 76.995 8.26 108.47c3.08 32.745 7.08 102.92 7.08 102.92h14.007s2.926-71.366 1.817-103.66c-1.18-35.199-0.437-108.63-0.437-108.63l-30.727 0.909z" fill="#263238" />
	<path d="m429.96 461.11h-16.438l-1.215-5.24 18.42-0.649-0.767 5.889z" fill="#407BFF" />
	<path d="m429.93 275.81c-1.699-1.888-3.54-0.908-5.64 4.472-6.998 18.361 0.46 47.661 5.9 64.535-0.366-21.004-0.354-48.64-0.26-69.007z" fill="#000" opacity=".2" />
	<path d="m413 151.94c0 0.838-0.378 1.534-0.92 1.558-0.543 0.023-1.015-0.626-1.062-1.464-0.048-0.837 0.365-1.534 0.92-1.557 0.555-0.024 1.062 0.625 1.062 1.463z" fill="#263238" />
	<path d="m403.56 152.22c0 0.838-0.378 1.534-0.92 1.558-0.543 0.023-1.015-0.626-1.062-1.463-0.048-0.838 0.365-1.534 0.92-1.558s1.062 0.566 1.062 1.463z" fill="#263238" />
	<path d="m402.72 150.73-2.029-0.483s1.109 1.522 2.029 0.483z" fill="#263238" />
	<path d="m407.19 152.84c-0.647 1.942-1.561 3.784-2.714 5.476 0.44 0.287 0.938 0.474 1.458 0.545 0.521 0.072 1.051 0.026 1.551-0.132l-0.295-5.889z" fill="#ED847E" />
	<path d="m412.2 161.78c-0.389 0.081-0.784 0.133-1.18 0.153-0.033 2e-3 -0.066-3e-3 -0.096-0.014-0.031-0.011-0.059-0.028-0.083-0.05s-0.044-0.048-0.058-0.078c-0.014-0.029-0.021-0.061-0.023-0.094 3e-3 -0.063 0.028-0.122 0.071-0.168 0.044-0.046 0.102-0.074 0.165-0.079 1.04-0.027 2.06-0.299 2.975-0.795 0.915-0.497 1.699-1.203 2.288-2.061 0.017-0.028 0.039-0.052 0.065-0.072 0.027-0.019 0.057-0.033 0.089-0.041 0.032-7e-3 0.065-9e-3 0.097-3e-3 0.032 5e-3 0.063 0.016 0.091 0.033 0.028 0.016 0.052 0.037 0.071 0.063 0.019 0.025 0.033 0.054 0.041 0.085 7e-3 0.031 9e-3 0.063 4e-3 0.094-5e-3 0.032-0.016 0.062-0.033 0.089-0.512 0.766-1.172 1.421-1.943 1.926-0.77 0.505-1.635 0.849-2.541 1.012z" fill="#263238" />
	<path d="m433.06 156.78c-0.299 0.938-0.781 1.807-1.416 2.558-0.636 0.751-1.414 1.37-2.289 1.82-2.36 1.18-4.036-0.791-3.812-3.281 0.201-2.23 1.664-5.557 4.237-5.711 0.562-0.024 1.121 0.094 1.626 0.341s0.941 0.617 1.267 1.075c0.326 0.459 0.532 0.992 0.599 1.55 0.068 0.558-5e-3 1.125-0.212 1.648z" fill="#FFC3BD" />
	<path d="m416.69 149.06c-0.1 0.022-0.205 0.011-0.299-0.031-0.094-0.043-0.171-0.115-0.22-0.205-1.121-1.971-4.035-2.278-4.059-2.29-0.064-6e-3 -0.125-0.024-0.182-0.054-0.056-0.031-0.106-0.071-0.146-0.121-0.041-0.049-0.071-0.106-0.09-0.167-0.018-0.061-0.025-0.125-0.019-0.189 7e-3 -0.063 0.025-0.125 0.055-0.181s0.071-0.106 0.12-0.147c0.05-0.04 0.107-0.071 0.168-0.089 0.061-0.019 0.125-0.025 0.188-0.019 0.142 0 3.446 0.354 4.815 2.773 0.033 0.055 0.056 0.117 0.065 0.181s5e-3 0.13-0.011 0.193c-0.017 0.062-0.046 0.121-0.085 0.172-0.04 0.052-0.09 0.095-0.146 0.126l-0.154 0.048z" fill="#263238" />
	<path d="m400.52 147.41c-0.084 0.02-0.171 0.016-0.252-0.011-0.082-0.028-0.154-0.077-0.209-0.143-0.046-0.045-0.084-0.099-0.109-0.159-0.025-0.059-0.038-0.124-0.038-0.189s0.013-0.129 0.038-0.189 0.063-0.114 0.109-0.159c0.565-0.535 1.249-0.928 1.996-1.146 0.748-0.217 1.536-0.253 2.3-0.105 0.126 0.034 0.234 0.116 0.301 0.228 0.066 0.113 0.085 0.247 0.053 0.374-0.036 0.125-0.119 0.231-0.231 0.297s-0.245 0.086-0.371 0.057c-0.606-0.114-1.23-0.081-1.819 0.098-0.59 0.179-1.128 0.497-1.568 0.929-0.056 0.054-0.125 0.095-0.2 0.118z" fill="#263238" />
	<path d="m452.18 196.82c1.381 5.511 2.82 11.128 4.295 16.65s3.092 11.033 4.874 16.367c1.781 5.333 3.988 10.62 6.029 16.048 2.042 5.428 4.119 10.903 5.995 16.437l-4.72 2.23c-3.068-5.003-5.9-10.089-8.697-15.257-1.376-2.58-2.722-5.192-4.035-7.835-1.334-2.608-2.596-5.417-3.717-8.26-2.254-5.594-4.13-11.222-5.806-16.886s-3.21-11.328-4.508-17.157l10.29-2.337z" fill="#FFC3BD" />
	<path d="m446.98 184.93c4.248 1.18 9.747 15.517 9.747 15.517l-16.013 12.177s-6.325-11.929-4.72-17.44c1.688-5.723 6.124-11.576 10.986-10.254z" fill="#263238" />
	<path d="m411.58 475.24c-0.886 0.077-1.771-0.147-2.513-0.637-0.163-0.148-0.288-0.331-0.366-0.536-0.078-0.206-0.106-0.426-0.083-0.644 0.01-0.135 0.055-0.266 0.129-0.379 0.074-0.114 0.176-0.207 0.296-0.27 1.263-0.696 5.393 1.416 5.9 1.652 0.045 0.025 0.081 0.064 0.105 0.11 0.023 0.046 0.032 0.098 0.025 0.149-5e-3 0.052-0.028 0.1-0.065 0.136-0.036 0.037-0.084 0.06-0.136 0.065-1.083 0.223-2.186 0.342-3.292 0.354zm-1.853-2.148c-0.154-9e-3 -0.307 0.02-0.448 0.083-0.05 0.026-0.091 0.065-0.12 0.113-0.03 0.047-0.045 0.102-0.045 0.158-0.023 0.145-9e-3 0.294 0.04 0.432 0.05 0.138 0.133 0.262 0.243 0.359 0.625 0.566 2.36 0.661 4.626 0.283-1.339-0.719-2.792-1.202-4.296-1.428z" fill="#407BFF" />
	<path d="m414.79 474.88h-0.095c-1.239-0.566-3.681-2.796-3.54-3.965 0-0.283 0.248-0.625 0.921-0.696 0.245-0.028 0.493-5e-3 0.729 0.068s0.453 0.195 0.639 0.357c1.298 1.086 1.534 3.87 1.546 3.988 4e-3 0.044-4e-3 0.087-0.023 0.127-0.018 0.039-0.047 0.073-0.083 0.098-0.03 0.014-0.062 0.022-0.094 0.023zm-2.467-4.201h-0.141c-0.449 0-0.484 0.225-0.496 0.284-0.106 0.708 1.546 2.466 2.809 3.233-0.099-1.177-0.561-2.295-1.322-3.198-0.233-0.209-0.537-0.322-0.85-0.319z" fill="#407BFF" />
	<path d="m487.66 474.63h-10.361l-6.277-24.002h10.372l6.266 24.002z" fill="#FFC3BD" />
	<path d="m487.75 473.43h-11.647c-0.093-8e-3 -0.187 5e-3 -0.275 0.038-0.087 0.034-0.166 0.086-0.231 0.154s-0.113 0.15-0.142 0.239-0.037 0.184-0.024 0.277l0.708 9.216c0.076 0.499 0.324 0.955 0.701 1.291s0.859 0.531 1.364 0.549c4.047-0.07 5.9-0.306 11.068-0.306 3.151 0 6.29 0.33 10.62 0.33 4.331 0 3.635-4.307 1.735-4.72-8.508-1.746-8.791-4.154-12.036-6.455-0.538-0.384-1.18-0.598-1.841-0.613z" fill="#263238" />
	<g opacity=".2">
		<path d="m471.03 450.63 3.222 12.379h10.372l-3.233-12.379h-10.361z" fill="#000" opacity=".2" />
	</g>
	<path d="m441.39 247.98c11.977 16.048 19.269 74.977 24.567 106.48 5.511 32.769 19.057 106.2 19.057 106.2h-14.006s-19.057-74.694-29.04-106.32c-11.033-34.916-27.518-106.32-27.518-106.32l26.94-0.047z" fill="#263238" />
	<path d="m486.02 461.11h-16.449l-1.203-5.24 18.419-0.649-0.767 5.889z" fill="#407BFF" />
	<path d="m489.13 473.72c0.835-0.311 1.538-0.898 1.994-1.664 0.085-0.206 0.119-0.43 0.099-0.652-0.021-0.222-0.095-0.436-0.217-0.622-0.066-0.117-0.16-0.214-0.273-0.284-0.114-0.071-0.243-0.111-0.376-0.118-1.452-0.082-4.272 3.599-4.59 4.024-0.029 0.042-0.045 0.091-0.045 0.142 0 0.05 0.016 0.1 0.045 0.141 0.026 0.043 0.066 0.075 0.113 0.092s0.099 0.018 0.146 3e-3c1.066-0.255 2.105-0.611 3.104-1.062zm0.743-2.738c0.139-0.072 0.292-0.112 0.448-0.118 0.056 2e-3 0.11 0.02 0.156 0.051 0.046 0.032 0.082 0.075 0.104 0.126 0.083 0.119 0.135 0.257 0.152 0.401 0.016 0.145-3e-3 0.291-0.058 0.425-0.33 0.779-1.829 1.605-4.059 2.254 0.901-1.222 2.002-2.283 3.257-3.139z" fill="#407BFF" />
	<path d="m486.08 474.77c0.032-0.013 0.061-0.033 0.083-0.059 0.873-1.038 2.112-4.106 1.44-5.086-0.166-0.236-0.496-0.46-1.18-0.224-0.232 0.081-0.445 0.209-0.625 0.376-0.181 0.166-0.326 0.367-0.426 0.592-0.708 1.534 0.284 4.153 0.319 4.271 0.016 0.04 0.041 0.075 0.074 0.102 0.033 0.026 0.073 0.044 0.115 0.052 0.033 0.012 0.068 0.016 0.103 0.012s0.068-0.017 0.097-0.036zm0.413-4.85 0.142-0.059c0.425-0.153 0.531 0 0.555 0 0.413 0.578-0.331 2.879-1.18 4.118-0.421-1.104-0.487-2.313-0.189-3.457 0.141-0.277 0.381-0.492 0.672-0.602z" fill="#407BFF" />
	<path d="m412.16 150.51-2.029-0.484s1.109 1.523 2.029 0.484z" fill="#263238" />
	<path d="m441.94 245.44 1.18 3.741c0.154 0.283-0.188 0.59-0.672 0.613l-43.306 1.286c-0.378 0-0.696-0.165-0.732-0.401l-0.484-3.764c0-0.26 0.284-0.484 0.697-0.496l42.609-1.274c0.134-0.015 0.269 4e-3 0.393 0.056 0.123 0.052 0.232 0.134 0.315 0.239z" fill="#407BFF" />
	<path d="m436.36 250.43h1.18c0.224 0 0.389-0.13 0.378-0.272l-0.685-4.885c0-0.142-0.224-0.248-0.448-0.248h-1.18c-0.224 0-0.39 0.13-0.378 0.272l0.685 4.885c0.023 0.141 0.224 0.248 0.448 0.248z" fill="#263238" />
	<path d="m402.38 251.43h1.18c0.224 0 0.389-0.129 0.378-0.271l-0.685-4.873c0-0.142-0.224-0.26-0.448-0.248h-1.18c-0.224 0-0.39 0.13-0.378 0.271l0.685 4.874c0.023 0.153 0.224 0.259 0.448 0.247z" fill="#263238" />
	<path d="m419.37 250.93h1.18c0.224 0 0.389-0.13 0.378-0.283l-0.685-4.874c0-0.141-0.224-0.247-0.448-0.247h-1.18c-0.224 0-0.39 0.13-0.378 0.271l0.685 4.873c-0.024 0.166 0.224 0.272 0.448 0.26z" fill="#263238" />
	<path d="m472.18 260.46 8.26 7.563-10.455 1.346s-3.917-5.369-2.053-9.252l4.248 0.343z" fill="#FFC3BD" />
	<path d="m481.84 276.63-8.814 0.649-3.068-7.905 10.454-1.334 1.428 8.59z" fill="#FFC3BD" />
	<path d="m419.49 133.1s-8.697-3.988-18.29 8.107c11.552 3.433 19.317 1.05 19.317 1.05l-1.027-9.157z" fill="#263238" />
	<path d="m418.24 132.03s2.101 30.409 0 45.56c12.201-3.87 23.872-15.942 23.872-15.942s-1.711-33.287-23.872-29.618z" fill="#263238" />
	<path d="m412.04 158.98c-2.737 0-5.251-3.387-5.617-7.552-0.155-1.118-0.084-2.256 0.207-3.347 0.292-1.09 0.8-2.111 1.493-3.002 0.327-0.386 0.733-0.698 1.191-0.913 0.458-0.216 0.957-0.331 1.464-0.338 2.737 0 5.262 3.387 5.628 7.552 0.157 1.119 0.086 2.258-0.208 3.349s-0.805 2.111-1.503 3c-0.327 0.386-0.734 0.697-1.192 0.913s-0.957 0.331-1.463 0.338zm-1.262-14.562c-0.423 0.01-0.839 0.109-1.221 0.29s-0.722 0.44-0.998 0.761c-0.636 0.831-1.101 1.781-1.366 2.794-0.266 1.013-0.327 2.069-0.18 3.106 0.331 3.858 2.596 7.009 5.027 7.009 0.425-7e-3 0.843-0.106 1.225-0.289 0.383-0.183 0.722-0.447 0.994-0.773 0.64-0.83 1.107-1.78 1.374-2.793 0.268-1.013 0.33-2.07 0.183-3.107-0.342-3.859-2.596-6.998-5.038-6.998z" fill="#fff" />
	<path d="m401.77 158.98c-2.218 0-4.248-3.316-4.613-7.552-0.248-2.844 0.342-5.428 1.534-6.726 0.223-0.266 0.501-0.482 0.814-0.632 0.314-0.151 0.655-0.233 1.003-0.242 2.218 0 4.236 3.316 4.614 7.552 0.236 2.844-0.354 5.417-1.546 6.726-0.223 0.265-0.499 0.479-0.81 0.63-0.311 0.15-0.65 0.233-0.996 0.244zm-1.262-14.562c-0.266 6e-3 -0.528 0.071-0.767 0.189-0.238 0.118-0.448 0.287-0.614 0.496-1.074 1.18-1.616 3.634-1.38 6.277 0.318 3.8 2.171 7.01 4.023 7.01 0.264-0.01 0.523-0.077 0.759-0.195s0.444-0.285 0.61-0.49c1.074-1.18 1.617-3.634 1.393-6.277-0.331-3.8-2.148-7.01-4.024-7.01z" fill="#fff" />
	<path d="m406.72 151.7h-0.129c-0.249-0.132-0.527-0.201-0.809-0.201s-0.559 0.069-0.808 0.201c-0.066 0.04-0.145 0.052-0.22 0.034-0.075-0.017-0.14-0.063-0.181-0.128-0.022-0.032-0.037-0.068-0.045-0.105-7e-3 -0.038-7e-3 -0.076 0-0.114 8e-3 -0.037 0.023-0.073 0.045-0.104 0.022-0.032 0.05-0.058 0.082-0.079 0.337-0.175 0.712-0.267 1.092-0.267s0.754 0.092 1.091 0.267c0.07 0.034 0.125 0.093 0.154 0.165 0.028 0.072 0.028 0.152 0 0.225-0.034 0.037-0.077 0.066-0.124 0.084-0.047 0.019-0.097 0.026-0.148 0.022z" fill="#fff" />
	<path d="m456.26 331.39h-322.53v11.01h322.53v-11.01z" fill="#407BFF" />
	<path d="m456.26 331.39h-322.53v11.01h322.53v-11.01z" fill="#fff" opacity=".8" />
	<path d="m456.27 331.39h-94.4v11.01h94.4v-11.01z" fill="#407BFF" opacity=".3" />
	<path d="m384.88 489.31h-6.29l-8.366-146.91h14.656v146.91z" fill="#407BFF" />
	<path d="m449.97 489.31h6.302l-8.367-146.91h-14.655l16.72 146.91z" fill="#407BFF" />
	<path d="m140.03 489.31h-6.302l8.367-146.91h14.655l-16.72 146.91z" fill="#407BFF" />
	<path d="m205.12 489.31h6.29l8.366-146.91h-14.656v146.91z" fill="#407BFF" />
	<path d="m356.89 278.64h-68.818c-0.802 0.026-1.572 0.324-2.184 0.845-0.611 0.521-1.026 1.234-1.179 2.023l-7.528 43.105c-0.075 0.348-0.07 0.709 0.015 1.056 0.084 0.346 0.246 0.669 0.473 0.944 0.227 0.274 0.514 0.494 0.838 0.642 0.324 0.149 0.678 0.221 1.034 0.214h68.806c0.801-0.025 1.57-0.322 2.181-0.84 0.61-0.519 1.027-1.23 1.182-2.016l7.528-43.105c0.077-0.349 0.074-0.71-9e-3 -1.057s-0.244-0.67-0.47-0.946-0.511-0.498-0.835-0.647c-0.324-0.15-0.677-0.224-1.034-0.218z" fill="#407BFF" />
	<path d="m356.89 278.64h-68.818c-0.802 0.026-1.572 0.324-2.184 0.845-0.611 0.521-1.026 1.234-1.179 2.023l-7.528 43.105c-0.075 0.348-0.07 0.709 0.015 1.056 0.084 0.346 0.246 0.669 0.473 0.944 0.227 0.274 0.514 0.494 0.838 0.642 0.324 0.149 0.678 0.221 1.034 0.214h68.806c0.801-0.025 1.57-0.322 2.181-0.84 0.61-0.519 1.027-1.23 1.182-2.016l7.528-43.105c0.077-0.349 0.074-0.71-9e-3 -1.057s-0.244-0.67-0.47-0.946-0.511-0.498-0.835-0.647c-0.324-0.15-0.677-0.224-1.034-0.218z" fill="#fff" opacity=".2" />
	<path d="m355.57 278.64h-68.829c-0.803 0.026-1.573 0.324-2.184 0.845s-1.027 1.234-1.179 2.023l-7.528 43.105c-0.075 0.348-0.07 0.709 0.014 1.056 0.085 0.346 0.247 0.669 0.474 0.944 0.227 0.274 0.513 0.494 0.837 0.642 0.325 0.149 0.678 0.221 1.035 0.213h68.805c0.816-6e-3 1.604-0.293 2.232-0.814 0.627-0.52 1.056-1.241 1.214-2.041l7.528-43.105c0.079-0.355 0.075-0.723-0.012-1.075s-0.254-0.68-0.488-0.957c-0.234-0.278-0.529-0.498-0.862-0.642-0.332-0.145-0.694-0.212-1.057-0.194z" fill="#407BFF" />
	<path d="m355.57 278.64h-68.829c-0.803 0.026-1.573 0.324-2.184 0.845s-1.027 1.234-1.179 2.023l-7.528 43.105c-0.075 0.348-0.07 0.709 0.014 1.056 0.085 0.346 0.247 0.669 0.474 0.944 0.227 0.274 0.513 0.494 0.837 0.642 0.325 0.149 0.678 0.221 1.035 0.213h68.805c0.816-6e-3 1.604-0.293 2.232-0.814 0.627-0.52 1.056-1.241 1.214-2.041l7.528-43.105c0.079-0.355 0.075-0.723-0.012-1.075s-0.254-0.68-0.488-0.957c-0.234-0.278-0.529-0.498-0.862-0.642-0.332-0.145-0.694-0.212-1.057-0.194z" fill="#fff" opacity=".4" />
	<path d="m278.24 326.29c-0.181 8e-3 -0.361-0.024-0.528-0.093s-0.317-0.174-0.44-0.308c-0.114-0.151-0.194-0.326-0.235-0.511-0.04-0.185-0.041-0.377-1e-3 -0.563l7.529-43.105c0.104-0.514 0.376-0.978 0.774-1.32 0.397-0.342 0.897-0.542 1.421-0.568h68.805c0.182-6e-3 0.363 0.029 0.53 0.1s0.316 0.178 0.438 0.313c0.115 0.151 0.195 0.326 0.236 0.511s0.041 0.377 0 0.563l-7.493 43.093c-0.104 0.514-0.376 0.979-0.774 1.321-0.397 0.341-0.897 0.541-1.421 0.567h-68.841z" fill="#fff" />
	<path d="m347.39 327.47h-86.541c-1.015 6e-3 -1.987 0.412-2.705 1.13s-1.124 1.689-1.13 2.705h94.211c-6e-3 -1.016-0.412-1.987-1.13-2.705s-1.69-1.124-2.705-1.13z" fill="#407BFF" />
	<path d="m347.39 327.47h-86.541c-1.015 6e-3 -1.987 0.412-2.705 1.13s-1.124 1.689-1.13 2.705h94.211c-6e-3 -1.016-0.412-1.987-1.13-2.705s-1.69-1.124-2.705-1.13z" fill="#fff" opacity=".4" />
	<path d="m347.39 327.47h-19.281c-1.015 6e-3 -1.987 0.412-2.705 1.13s-1.124 1.689-1.13 2.705h26.951c-6e-3 -1.016-0.412-1.987-1.13-2.705s-1.69-1.124-2.705-1.13z" fill="#407BFF" opacity=".8" />
	<path d="m392.72 312.13h-12.638c-0.776 0-1.404 0.628-1.404 1.404v16.449c0 0.775 0.628 1.404 1.404 1.404h12.638c0.775 0 1.404-0.629 1.404-1.404v-16.449c0-0.776-0.629-1.404-1.404-1.404z" fill="#407BFF" />
	<path d="m380.7 321.52 0.225-1.11h-1.062v-1.18h1.274l0.307-1.557h1.18l-0.319 1.557h0.956l0.319-1.557h1.239l-0.319 1.557h0.602v1.18h-0.838l-0.224 1.11h1.062v1.18h-1.31l-0.307 1.534h-1.168l0.307-1.523h-0.956l-0.307 1.534h-1.18l0.307-1.534h-0.602v-1.18l0.814-0.011zm1.239 0h0.956l0.224-1.11h-0.955l-0.225 1.11z" fill="#fff" />
	<path d="m389.87 317.66v6.49h-1.794v-4.26c-0.261 0.207-0.542 0.389-0.837 0.543-0.333 0.153-0.676 0.283-1.027 0.389v-1.451c0.51-0.151 0.989-0.39 1.416-0.708 0.332-0.271 0.598-0.614 0.779-1.003h1.463z" fill="#fff" />
	<path d="m395.57 329.28c-3.056 0-5.451-3.304-5.451-7.517 0-4.212 2.442-7.528 5.451-7.528s5.452 3.375 5.452 7.528c0 4.154-2.395 7.517-5.452 7.517zm0-13.311c-2.017 0-3.717 2.644-3.717 5.794 0 3.151 1.7 5.782 3.717 5.782 2.018 0 3.717-2.643 3.717-5.782s-1.711-5.794-3.717-5.794z" fill="#407BFF" />
	<path d="m214.23 276.25-1.097 1.699-1.18 1.864c-0.767 1.251-1.511 2.525-2.254 3.812-1.463 2.572-2.879 5.18-4.189 7.823-2.633 5.205-4.839 10.616-6.596 16.178-0.425 1.369-0.803 2.737-1.18 4.106l-0.484 2.065-0.201 1.027-0.106 0.519c0 0.165-0.071 0.389-0.071 0.342s-0.094 0-0.212-0.307c-0.127-0.273-0.322-0.509-0.567-0.684-0.2-0.118-0.236 0-0.129 0.106 0.244 0.222 0.518 0.409 0.814 0.555 1.007 0.495 2.074 0.86 3.174 1.085 1.335 0.312 2.686 0.552 4.047 0.72 2.809 0.366 5.9 0.543 8.803 0.696h0.295c0.956 0.05 1.865 0.43 2.573 1.074s1.17 1.514 1.31 2.461c0.139 0.947-0.055 1.913-0.547 2.733-0.493 0.821-1.255 1.446-2.156 1.768-3.258 1.169-6.626 2.003-10.053 2.49-3.832 0.625-7.746 0.525-11.541-0.295-1.226-0.301-2.413-0.74-3.54-1.31-1.424-0.722-2.71-1.689-3.799-2.855-1.274-1.384-2.218-3.038-2.762-4.838-0.462-1.625-0.625-3.32-0.483-5.004 0-0.448 0-0.613 0.07-0.837l0.083-0.649 0.153-1.322c0.13-0.861 0.248-1.735 0.39-2.596 0.295-1.723 0.625-3.434 1.038-5.109 1.615-6.632 3.884-13.086 6.773-19.27 1.428-3.044 2.95-6.041 4.614-8.956 0.826-1.463 1.699-2.903 2.596-4.331 0.449-0.719 0.909-1.427 1.393-2.147 0.483-0.72 0.932-1.369 1.545-2.219 1.271-1.709 3.153-2.861 5.253-3.216s4.256 0.115 6.018 1.312c1.761 1.197 2.993 3.028 3.437 5.111s0.066 4.257-1.055 6.068l-0.177 0.331z" fill="#407BFF" />
	<path d="m245.78 228.62c0.118 0.802 0.637 1.38 1.18 1.31 0.543-0.071 0.85-0.791 0.732-1.582-0.118-0.79-0.637-1.38-1.18-1.309-0.543 0.07-0.85 0.79-0.732 1.581z" fill="#263238" />
	<path d="m246.35 230.02c1.311 2.292 2.931 4.392 4.814 6.243-0.485 0.469-1.067 0.826-1.706 1.046-0.638 0.22-1.316 0.298-1.987 0.228l-1.121-7.517z" fill="#A02724" />
	<path d="m242.3 224.64c0.1-8e-3 0.193-0.054 0.26-0.129 0.412-0.428 0.92-0.751 1.483-0.942 0.562-0.191 1.163-0.245 1.75-0.156 0.123 0.025 0.252 1e-3 0.357-0.068 0.106-0.068 0.181-0.175 0.209-0.298 0.025-0.122 0-0.248-0.068-0.352-0.069-0.104-0.176-0.177-0.297-0.202-0.741-0.123-1.5-0.065-2.213 0.169-0.713 0.235-1.359 0.638-1.882 1.176-0.087 0.09-0.136 0.211-0.136 0.336 0 0.126 0.049 0.246 0.136 0.337 0.053 0.049 0.117 0.087 0.186 0.109 0.069 0.023 0.143 0.03 0.215 0.02z" fill="#263238" />
	<path d="m222.41 237.42c0.343 7.434-0.224 20.862-5.994 24.933 0 0 0.885 7.611 14.302 9.617 14.738 2.195 8.142-6.277 8.142-6.277-7.765-3.115-6.667-9.063-4.425-14.455l-12.025-13.818z" fill="#B55B52" />
	<path d="m214.1 265.32c-0.578-3.363-1.18-7.198 1.357-7.788 2.785-0.649 17.205 1.274 21.759 4.72 4.555 3.446 2.219 9.44 2.219 9.44l-25.335-6.372z" fill="#E0E0E0" />
	<path d="m252.98 277.86c0.543 11.894 0 35.482-8.071 71.189h-53.36c-0.33-7.422 7.328-39.424 6.667-74.588-0.032-1.762 0.286-3.514 0.937-5.152 0.65-1.639 1.621-3.131 2.854-4.391s2.705-2.261 4.329-2.947c1.624-0.685 3.369-1.04 5.132-1.044 1.05 0 2.159 0 3.304 0.129 7.548 0.526 15.059 1.503 22.491 2.927 2.218 0.507 4.377 1.097 6.336 1.699 2.628 0.817 4.939 2.425 6.618 4.604 1.679 2.18 2.644 4.825 2.763 7.574z" fill="#407BFF" />
	<path d="m244.92 299.26c-0.85 6.041-2.809 16.52 4.26 28.107 0.802-4.802 1.451-9.298 1.982-13.499l-6.242-14.608z" fill="#000" opacity=".2" />
	<path d="m286.5 313.88 8.98-3.092-3.658-9.44c-2.041 0.296-3.963 1.141-5.561 2.444s-2.813 3.016-3.513 4.955l3.752 5.133z" fill="#B55B52" />
	<path d="m300.24 308.1 0.956-7.623-9.369 0.779 3.658 9.475 4.755-2.631z" fill="#B55B52" />
	<path d="m252.92 276.76c0.496 1.735 1.109 3.752 1.699 5.64s1.18 3.824 1.865 5.723c1.274 3.8 2.678 7.541 4.153 11.199s3.127 7.209 4.909 10.525c1.628 3.137 3.607 6.078 5.9 8.768l-8.649-1.334c1.664-0.72 3.375-1.463 5.097-2.36 1.723-0.897 3.481-1.699 5.216-2.643l5.31-2.797c1.77-0.932 3.54-1.947 5.345-2.82l0.189-0.094c0.843-0.423 1.804-0.548 2.727-0.355s1.753 0.692 2.356 1.417c0.604 0.725 0.944 1.632 0.966 2.575 0.021 0.943-0.276 1.865-0.845 2.617-1.32 1.744-2.73 3.417-4.224 5.015-1.475 1.593-3.021 3.103-4.626 4.59s-3.304 2.891-5.074 4.236-3.646 2.643-5.64 3.847c-1.278 0.762-2.769 1.086-4.248 0.922-1.478-0.164-2.862-0.807-3.942-1.831l-0.46-0.436c-3.497-3.391-6.532-7.227-9.027-11.411-2.369-3.847-4.478-7.848-6.313-11.977-1.852-4.047-3.445-8.154-4.897-12.284-0.72-2.065-1.416-4.141-2.041-6.23-0.626-2.089-1.18-4.142-1.782-6.455-0.565-2.117-0.266-4.371 0.832-6.268 1.098-1.896 2.904-3.279 5.021-3.844s4.372-0.266 6.268 0.832c1.897 1.098 3.28 2.904 3.844 5.021l0.071 0.212z" fill="#407BFF" />
	<path d="m218.98 230.91c2.065 9.676 2.773 15.446 8.461 19.73 8.555 6.442 19.954 0.165 20.827-9.948 0.779-9.098-2.714-23.399-12.862-25.865-2.236-0.553-4.576-0.526-6.799 0.08-2.222 0.606-4.252 1.77-5.898 3.382-1.646 1.611-2.853 3.617-3.505 5.826-0.653 2.209-0.73 4.548-0.224 6.795z" fill="#B55B52" />
	<path d="m239.84 231.93c4.626-0.354 4.354-2.49 3.316-4.059-1.039-1.57-2.301-7.21-2.301-7.21s6.431 1.699 5.109-4.461c-1.321-6.159-10.006-13.959-17.594-9.18-15.115-2.49-20.06 3.611-17.7 9.251-12 5.31-3.339 16.06 1.44 16.06-4.26 3.8 2.1 9.275 12.414 15.423 7.552-9.098 18.691-6.656 15.316-15.824z" fill="#263238" />
	<path d="m230.49 210.11c-0.157-2e-3 -0.312-0.036-0.455-0.099-0.144-0.063-0.274-0.153-0.382-0.267-1.759-1.769-3.951-3.045-6.357-3.701-2.406-0.657-4.942-0.67-7.355-0.04-0.304 0.071-0.623 0.019-0.888-0.144-0.265-0.164-0.455-0.426-0.528-0.729-0.071-0.303-0.019-0.623 0.145-0.888 0.163-0.265 0.425-0.455 0.728-0.528 2.815-0.718 5.769-0.691 8.57 0.078 2.802 0.77 5.355 2.256 7.407 4.312 0.22 0.221 0.344 0.52 0.344 0.832 0 0.311-0.124 0.61-0.344 0.832-0.115 0.115-0.254 0.205-0.406 0.263-0.153 0.059-0.315 0.086-0.479 0.079z" fill="#263238" />
	<path d="m214.85 243.08c-0.155 1e-3 -0.309-0.029-0.453-0.088-0.143-0.058-0.274-0.145-0.384-0.254-3.328-3.352-4.72-5.971-4.296-8.26 0.199-0.865 0.609-1.667 1.194-2.335 0.585-0.667 1.326-1.179 2.158-1.489 0.283-0.134 0.608-0.151 0.903-0.046 0.296 0.106 0.537 0.324 0.672 0.607 0.134 0.283 0.151 0.608 0.046 0.904-0.105 0.295-0.323 0.537-0.607 0.671-1.239 0.59-1.899 1.275-2.041 2.089s0.33 2.855 3.646 6.183c0.111 0.11 0.199 0.24 0.258 0.384 0.06 0.144 0.091 0.298 0.091 0.454s-0.031 0.31-0.091 0.454c-0.059 0.143-0.147 0.274-0.258 0.384-0.11 0.109-0.241 0.196-0.385 0.254-0.143 0.059-0.297 0.089-0.453 0.088z" fill="#263238" />
	<path d="m234.15 231.17c0.792 2.329 2.326 4.335 4.366 5.711 2.703 1.782 4.532-0.236 4.178-3.151-0.319-2.631-2.113-6.726-5.015-7.351-2.903-0.626-4.437 1.97-3.529 4.791z" fill="#B55B52" />
	<path d="m326.41 480.67c1.274 0 2.513-0.177 2.926-0.744 0.106-0.152 0.163-0.333 0.163-0.519 0-0.185-0.057-0.367-0.163-0.519-0.08-0.138-0.187-0.258-0.315-0.353-0.128-0.096-0.273-0.164-0.428-0.202-1.664-0.448-5.145 1.534-5.299 1.629-0.041 0.022-0.074 0.057-0.093 0.1-0.019 0.042-0.024 0.09-0.013 0.136 6e-3 0.047 0.026 0.092 0.058 0.128 0.031 0.035 0.073 0.061 0.119 0.072 1.006 0.174 2.024 0.265 3.045 0.272zm1.581-1.935c0.151 0 0.302 0.019 0.448 0.059 0.098 0.019 0.19 0.058 0.271 0.115 0.082 0.057 0.15 0.13 0.201 0.215 0.165 0.295 0.106 0.437 0 0.519-0.472 0.649-2.997 0.661-4.85 0.401 1.228-0.691 2.579-1.136 3.977-1.309h-0.047z" fill="#407BFF" />
	<path d="m323.39 480.4h0.094c1.18-0.531 3.599-2.691 3.41-3.824 0-0.259-0.224-0.59-0.873-0.66-0.234-0.025-0.47-2e-3 -0.695 0.067s-0.434 0.183-0.615 0.334c-1.274 1.05-1.545 3.74-1.557 3.847-2e-3 0.041 7e-3 0.082 0.026 0.119 0.018 0.037 0.046 0.069 0.08 0.093 0.039 0.024 0.085 0.033 0.13 0.024zm2.442-4.048h0.142c0.425 0 0.448 0.213 0.46 0.26 0.106 0.684-1.51 2.36-2.749 3.115 0.113-1.138 0.574-2.214 1.321-3.08 0.232-0.193 0.525-0.297 0.826-0.295z" fill="#407BFF" />
	<path d="m312.05 480.16h9.983l-1.9-23.104h-9.983l1.9 23.104z" fill="#B55B52" />
	<path d="m322.05 479.01h-10.892c-0.19-6e-3 -0.375 0.062-0.516 0.189-0.141 0.128-0.227 0.306-0.239 0.496l-0.649 8.826c-8e-3 0.229 0.03 0.458 0.112 0.672 0.081 0.214 0.205 0.41 0.363 0.576s0.348 0.299 0.558 0.39c0.211 0.092 0.437 0.141 0.666 0.144 3.918-0.071 9.558-0.295 14.502-0.295 5.771 0 6.372 0.307 13.146 0.307 4.094 0 4.613-4.142 2.843-4.508-8.047-1.711-10.018-1.9-17.381-6.053-0.761-0.458-1.626-0.714-2.513-0.744z" fill="#263238" />
	<path d="m320.12 457.07 0.991 11.906h-9.982l-0.98-11.906h9.971z" fill="#000" opacity=".2" />
	<path d="m264.32 480.67c0.841 0.097 1.687-0.135 2.36-0.649 0.125-0.171 0.192-0.378 0.192-0.59s-0.067-0.419-0.192-0.59c-0.078-0.138-0.184-0.259-0.313-0.352-0.128-0.094-0.275-0.159-0.43-0.191-1.452-0.342-4.213 1.546-4.331 1.629-0.036 0.027-0.063 0.063-0.08 0.105-0.016 0.041-0.021 0.086-0.014 0.131 7e-3 0.044 0.027 0.085 0.059 0.117s0.073 0.053 0.118 0.06c0.862 0.206 1.744 0.317 2.631 0.33zm1.251-1.9c0.098-0.012 0.197-0.012 0.295 0 0.091 0.019 0.178 0.057 0.253 0.112s0.138 0.125 0.183 0.207c0.213 0.389 0.083 0.554 0 0.602-0.424 0.566-2.466 0.566-3.953 0.318 0.945-0.642 2.022-1.066 3.151-1.239h0.071z" fill="#407BFF" />
	<path d="m261.75 480.4h0.106c1.038-0.566 3.032-2.749 2.82-3.858-0.035-0.175-0.129-0.333-0.267-0.447-0.137-0.113-0.31-0.177-0.488-0.179-0.18-0.022-0.362-6e-3 -0.534 0.047-0.173 0.053-0.333 0.142-0.469 0.26-1.18 0.944-1.404 3.823-1.404 3.941-5e-3 0.044 2e-3 0.088 0.021 0.128 0.019 0.039 0.048 0.073 0.085 0.097 0.041 0.016 0.086 0.02 0.13 0.011zm2.006-4.047h0.106c0.307 0 0.342 0.177 0.354 0.236 0.118 0.661-1.18 2.36-2.183 3.092 0.072-1.137 0.483-2.226 1.18-3.127 0.152-0.129 0.344-0.2 0.543-0.201z" fill="#407BFF" />
	<path d="m252.61 480.16h9.971l5.015-23.104h-9.971l-5.015 23.104z" fill="#B55B52" />
	<path d="m263.29 479.01h-11.198c-0.199-1e-3 -0.392 0.066-0.547 0.191-0.155 0.124-0.262 0.299-0.302 0.494l-1.971 8.826c-0.048 0.216-0.047 0.44 4e-3 0.655s0.15 0.416 0.29 0.588c0.139 0.171 0.316 0.309 0.517 0.402 0.2 0.094 0.419 0.14 0.64 0.137 3.918-0.071 5.818-0.295 10.75-0.295 3.033 0 6.915 0.307 11.104 0.307s4.72-4.142 3.021-4.508c-7.682-1.687-8.26-4-10.679-6.219-0.454-0.385-1.033-0.591-1.629-0.578z" fill="#263238" />
	<path d="m228.92 349.04s55.342 16.791 56.711 39.023c2.513 40.946-17.57 75.838-17.57 75.838h-14.963s5.688-17.299 7.729-54.386c2.561-46.61-85.573 1.086-69.278-60.475h37.371z" fill="#000" />
	<g opacity=".2">
		<path d="m257.62 457.07h9.982l-2.584 11.906h-9.983l2.585-11.906z" fill="#000" opacity=".2" />
	</g>
	<path d="m244.91 349.04s71.567 4.72 74.399 42.704c3.245 43.66 4.189 72.157 4.189 72.157h-14.821s-7.623-26.774-14.16-65.266c-1.97-11.528-26.42-13.511-49.56-14.879-19.942-1.18-35.258-2.36-36.934-24.45l0.26-10.266h36.627z" fill="#263238" />
	<path d="m327.12 459.94c0.082 0-0.956 7.08-0.956 7.08h-20.544l-0.555-6.265 22.055-0.815z" fill="#407BFF" />
	<path d="m272.58 459.94c0.083 0-1.888 7.08-1.888 7.08h-20.532l0.378-6.265 22.042-0.815z" fill="#407BFF" />
	<path d="m241.69 380.62-10.019-68.051c-0.269-1.842-1.192-3.526-2.6-4.743-1.408-1.218-3.208-1.888-5.07-1.889h-59.106c-1.114 0-2.214 0.24-3.227 0.704s-1.914 1.14-2.642 1.983-1.265 1.834-1.576 2.903c-0.311 1.07-0.388 2.194-0.225 3.296l9.676 65.797c0 0.757 0.15 1.507 0.44 2.206s0.715 1.335 1.251 1.87 1.172 0.958 1.872 1.247 1.45 0.437 2.207 0.435h107.75c0-0.757-0.149-1.507-0.439-2.206-0.29-0.7-0.716-1.335-1.252-1.87s-1.172-0.959-1.872-1.247c-0.7-0.289-1.45-0.437-2.207-0.435h-32.957z" fill="#407BFF" />
	<path d="m241.69 380.62-10.019-68.051c-0.269-1.842-1.192-3.526-2.6-4.743-1.408-1.218-3.208-1.888-5.07-1.889h-59.106c-1.114 0-2.214 0.24-3.227 0.704s-1.914 1.14-2.642 1.983-1.265 1.834-1.576 2.903c-0.311 1.07-0.388 2.194-0.225 3.296l9.676 65.797c0 0.757 0.15 1.507 0.44 2.206s0.715 1.335 1.251 1.87 1.172 0.958 1.872 1.247 1.45 0.437 2.207 0.435h107.75c0-0.757-0.149-1.507-0.439-2.206-0.29-0.7-0.716-1.335-1.252-1.87s-1.172-0.959-1.872-1.247c-0.7-0.289-1.45-0.437-2.207-0.435h-32.957z" fill="#fff" opacity=".5" />
	<path d="m224 305.94h-59.106c-1.114 0-2.214 0.24-3.227 0.704s-1.914 1.14-2.642 1.983-1.265 1.834-1.576 2.903c-0.311 1.07-0.388 2.194-0.225 3.296l9.676 65.797c0 0.757 0.15 1.507 0.44 2.206s0.715 1.335 1.251 1.87 1.172 0.958 1.872 1.247 1.45 0.437 2.207 0.435h62.67l-11.34-80.441z" fill="#407BFF" opacity=".3" />
	<path d="m167.65 491.16h-3.339l8.354-104.78h3.352l-8.367 104.78z" fill="#407BFF" />
	<path d="m167.65 491.16h-3.339l8.354-104.78h3.352l-8.367 104.78z" fill="#fff" opacity=".6" />
	<path d="m224.47 491.16h-3.339l8.366-104.78h3.34l-8.367 104.78z" fill="#407BFF" />
	<path d="m224.47 491.16h-3.339l8.366-104.78h3.34l-8.367 104.78z" fill="#fff" opacity=".6" />
	<path d="m229.62 491.16h-3.351l-8.354-104.78h3.339l8.366 104.78z" fill="#407BFF" />
	<path d="m229.62 491.16h-3.351l-8.354-104.78h3.339l8.366 104.78z" fill="#fff" opacity=".7" />
	<path d="m286.43 491.16h-3.339l-8.366-104.78h3.339l8.366 104.78z" fill="#407BFF" />
	<path d="m286.43 491.16h-3.339l-8.366-104.78h3.339l8.366 104.78z" fill="#fff" opacity=".7" />
</svg>
