<?xml version="1.0" encoding="UTF-8"?>
<svg viewBox="0 0 33 33" xmlns="http://www.w3.org/2000/svg">
	<path d="m21.875 11.667c0 1.5471-0.6146 3.0308-1.7085 4.1248-1.094 1.0939-2.5777 1.7085-4.1248 1.7085s-3.0308-0.6146-4.1248-1.7085c-1.094-1.094-1.7085-2.5777-1.7085-4.1248s0.6145-3.0308 1.7085-4.1248c1.094-1.094 2.5777-1.7086 4.1248-1.7086s3.0308 0.61458 4.1248 1.7086c1.0939 1.094 1.7085 2.5777 1.7085 4.1248zm-2.9166 0c0 0.7735-0.3073 1.5154-0.8543 2.0624s-1.2889 0.8543-2.0624 0.8543c-0.7736 0-1.5154-0.3073-2.0624-0.8543s-0.8543-1.2889-0.8543-2.0624c0-0.7736 0.3073-1.5154 0.8543-2.0624 0.547-0.54698 1.2888-0.85427 2.0624-0.85427 0.7735 0 1.5154 0.30729 2.0624 0.85427 0.547 0.54701 0.8543 1.2888 0.8543 2.0624z" clip-rule="evenodd" fill="#0D8BFC" fill-rule="evenodd" />
	<path d="m16.042 0c-8.8594 0-16.042 7.1823-16.042 16.042 0 8.8593 7.1823 16.042 16.042 16.042 8.8593 0 16.042-7.1823 16.042-16.042 0-8.8594-7.1823-16.042-16.042-16.042zm-13.125 16.042c0 3.0479 1.0398 5.8537 2.7825 8.082 1.2239-1.6072 2.8028-2.9097 4.6133-3.8057 1.8106-0.8961 3.8038-1.3614 5.824-1.3597 1.994-0.0019 3.9621 0.4514 5.7544 1.3253 1.7924 0.874 3.3615 2.1455 4.5881 3.7176 1.2635-1.6572 2.1143-3.5915 2.4819-5.6428 0.3676-2.0514 0.2414-4.1607-0.3681-6.1536s-1.6848-3.812-3.1369-5.3068-3.2393-2.6223-5.2137-3.2893-4.0792-0.8542-6.1403-0.5462-4.0193 1.1024-5.7124 2.3174-3.0726 2.8158-4.0243 4.6698c-0.95169 1.854-1.4482 3.908-1.4485 5.992zm13.125 13.125c-3.013 0.0045-5.9351-1.032-8.2717-2.9342 0.94052-1.3464 2.1924-2.4457 3.649-3.2044 1.4567-0.7587 3.0751-1.1543 4.7175-1.1531 1.6219-0.0013 3.2207 0.3844 4.6636 1.125s2.6883 1.8148 3.6328 3.1333c-2.3548 1.964-5.325 3.0377-8.3912 3.0334z" clip-rule="evenodd" fill="#0D8BFC" fill-rule="evenodd" />
</svg>
